<?xml version="1.0" encoding="UTF-8"?><svg xmlns="http://www.w3.org/2000/svg" xmlns:xlink="http://www.w3.org/1999/xlink" contentScriptType="text/ecmascript" width="144" zoomAndPan="magnify" contentStyleType="text/css" viewBox="0 0 144 143.999998" height="143.999998" preserveAspectRatio="xMidYMid meet" version="1.0"><path fill="rgb(50.19989%, 50.19989%, 50.19989%)" d="M 106.390625 80.84375 L 111.722656 75.511719 L 122.410156 86.199219 Z M 106.390625 63.15625 L 122.410156 57.800781 L 111.722656 68.488281 Z M 115.234375 72 L 128.375 58.859375 C 129.347656 57.890625 129.347656 56.316406 128.375 55.347656 C 127.601562 54.570312 126.445312 54.445312 125.515625 54.910156 C 125.503906 54.667969 125.503906 54.425781 125.429688 54.183594 C 124.992188 52.882812 123.585938 52.175781 122.285156 52.613281 L 102.460938 59.226562 L 81.183594 37.941406 L 120.871094 51.1875 C 121.132812 51.273438 121.394531 51.3125 121.65625 51.3125 C 122.691406 51.3125 123.664062 50.664062 124.011719 49.617188 C 124.4375 48.328125 123.742188 46.921875 122.441406 46.484375 L 82.714844 33.226562 C 81.417969 32.789062 80.011719 33.488281 79.574219 34.796875 C 79.390625 35.339844 79.449219 35.894531 79.632812 36.386719 L 78.722656 35.484375 C 77.75 34.515625 76.179688 34.515625 75.210938 35.484375 C 74.242188 36.457031 74.242188 38.027344 75.210938 38.996094 L 97.195312 60.984375 L 79.730469 66.8125 C 78.429688 67.246094 77.730469 68.652344 78.160156 69.953125 C 78.507812 70.992188 79.476562 71.652344 80.515625 71.652344 C 80.777344 71.652344 81.046875 71.613281 81.300781 71.523438 L 101.125 64.910156 L 108.214844 72 L 101.125 79.089844 L 81.300781 72.476562 C 80 72.039062 78.59375 72.746094 78.160156 74.046875 C 77.730469 75.347656 78.429688 76.753906 79.730469 77.1875 L 97.195312 83.015625 L 75.210938 105.003906 C 74.242188 105.972656 74.242188 107.542969 75.210938 108.515625 C 75.695312 109 76.324219 109.242188 76.964844 109.242188 C 76.976562 109.242188 76.984375 109.230469 76.996094 109.230469 C 76.996094 109.503906 77.003906 109.773438 77.089844 110.035156 C 77.441406 111.074219 78.410156 111.734375 79.449219 111.734375 C 79.710938 111.734375 79.972656 111.695312 80.234375 111.609375 L 124.921875 96.691406 C 126.222656 96.253906 126.921875 94.847656 126.496094 93.550781 C 126.058594 92.25 124.652344 91.542969 123.351562 91.976562 L 81.175781 106.058594 L 102.460938 84.773438 L 122.285156 91.386719 C 122.539062 91.472656 122.808594 91.511719 123.070312 91.511719 C 124.109375 91.511719 125.078125 90.851562 125.429688 89.816406 C 125.503906 89.574219 125.503906 89.332031 125.515625 89.089844 C 125.863281 89.261719 126.234375 89.378906 126.621094 89.378906 C 127.261719 89.378906 127.890625 89.136719 128.375 88.652344 C 129.347656 87.683594 129.347656 86.109375 128.375 85.140625 L 115.234375 72 " fill-opacity="1" fill-rule="nonzero"/><path fill="rgb(50.19989%, 50.19989%, 50.19989%)" d="M 46.804688 43.292969 L 64.269531 37.464844 C 65.570312 37.027344 66.269531 35.621094 65.839844 34.320312 C 65.40625 33.023438 64 32.316406 62.699219 32.75 L 42.875 39.367188 L 21.589844 18.078125 L 63.765625 32.160156 C 64.027344 32.246094 64.289062 32.285156 64.550781 32.285156 C 65.589844 32.285156 66.558594 31.625 66.910156 30.589844 C 67.335938 29.289062 66.636719 27.882812 65.335938 27.445312 L 20.648438 12.53125 C 19.347656 12.09375 17.941406 12.800781 17.503906 14.101562 C 17.417969 14.363281 17.410156 14.632812 17.410156 14.90625 C 16.757812 14.898438 16.117188 15.128906 15.625 15.625 C 14.652344 16.59375 14.652344 18.164062 15.625 19.132812 L 37.609375 41.121094 L 20.144531 46.949219 C 18.84375 47.386719 18.144531 48.792969 18.570312 50.089844 C 18.921875 51.128906 19.890625 51.789062 20.929688 51.789062 C 21.191406 51.789062 21.460938 51.75 21.714844 51.664062 L 41.539062 45.046875 L 62.824219 66.335938 L 20.648438 52.253906 C 19.347656 51.816406 17.941406 52.527344 17.503906 53.824219 C 17.070312 55.125 17.777344 56.53125 19.078125 56.96875 L 63.765625 71.882812 C 64.027344 71.972656 64.289062 72.007812 64.550781 72.007812 C 65.589844 72.007812 66.558594 71.351562 66.910156 70.3125 C 66.996094 70.050781 67.003906 69.777344 67.003906 69.507812 C 67.015625 69.507812 67.023438 69.515625 67.035156 69.515625 C 67.675781 69.515625 68.304688 69.273438 68.789062 68.789062 C 69.757812 67.820312 69.757812 66.25 68.789062 65.277344 L 46.804688 43.292969 " fill-opacity="1" fill-rule="nonzero"/><path fill="rgb(50.19989%, 50.19989%, 50.19989%)" d="M 63.765625 111.609375 C 63.921875 111.65625 64.085938 111.664062 64.242188 111.683594 L 21.589844 125.921875 L 42.875 104.632812 Z M 68.789062 75.210938 C 68.296875 74.714844 67.644531 74.484375 67.003906 74.492188 C 67.003906 74.222656 66.996094 73.949219 66.910156 73.6875 C 66.472656 72.386719 65.066406 71.679688 63.765625 72.117188 L 19.078125 87.03125 C 17.777344 87.46875 17.070312 88.875 17.503906 90.175781 C 17.855469 91.210938 18.824219 91.871094 19.863281 91.871094 C 20.125 91.871094 20.386719 91.832031 20.648438 91.746094 L 62.824219 77.664062 L 41.539062 98.953125 L 20.648438 91.976562 C 19.347656 91.542969 17.941406 92.25 17.503906 93.550781 C 17.070312 94.847656 17.777344 96.253906 19.078125 96.691406 L 37.609375 102.878906 L 15.625 124.867188 C 14.683594 125.816406 14.671875 127.320312 15.566406 128.296875 C 14.992188 128.9375 14.730469 129.851562 15.023438 130.734375 C 15.371094 131.769531 16.339844 132.421875 17.378906 132.421875 C 17.640625 132.421875 17.902344 132.382812 18.164062 132.292969 L 67.820312 115.71875 C 69.121094 115.285156 69.816406 113.878906 69.390625 112.578125 C 68.953125 111.289062 67.558594 110.578125 66.257812 111.015625 C 66.539062 110.746094 66.773438 110.425781 66.910156 110.035156 C 67.335938 108.738281 66.636719 107.332031 65.335938 106.894531 L 46.804688 100.707031 L 68.789062 78.722656 C 69.757812 77.75 69.757812 76.179688 68.789062 75.210938 " fill-opacity="1" fill-rule="nonzero"/><path fill="rgb(50.19989%, 50.19989%, 50.19989%)" d="M 24.828125 12.414062 C 24.828125 19.269531 19.269531 24.828125 12.414062 24.828125 C 5.558594 24.828125 0 19.269531 0 12.414062 C 0 5.558594 5.558594 0 12.414062 0 C 19.269531 0 24.828125 5.558594 24.828125 12.414062 " fill-opacity="1" fill-rule="nonzero"/><path fill="rgb(50.19989%, 50.19989%, 50.19989%)" d="M 24.828125 91.863281 C 24.828125 98.71875 19.269531 104.277344 12.414062 104.277344 C 5.558594 104.277344 0 98.71875 0 91.863281 C 0 85.003906 5.558594 79.449219 12.414062 79.449219 C 19.269531 79.449219 24.828125 85.003906 24.828125 91.863281 " fill-opacity="1" fill-rule="nonzero"/><path fill="rgb(50.19989%, 50.19989%, 50.19989%)" d="M 24.828125 52.136719 C 24.828125 58.996094 19.269531 64.550781 12.414062 64.550781 C 5.558594 64.550781 0 58.996094 0 52.136719 C 0 45.28125 5.558594 39.722656 12.414062 39.722656 C 19.269531 39.722656 24.828125 45.28125 24.828125 52.136719 " fill-opacity="1" fill-rule="nonzero"/><path fill="rgb(50.19989%, 50.19989%, 50.19989%)" d="M 24.828125 131.585938 C 24.828125 138.441406 19.269531 144 12.414062 144 C 5.558594 144 0 138.441406 0 131.585938 C 0 124.730469 5.558594 119.171875 12.414062 119.171875 C 19.269531 119.171875 24.828125 124.730469 24.828125 131.585938 " fill-opacity="1" fill-rule="nonzero"/><path fill="rgb(50.19989%, 50.19989%, 50.19989%)" d="M 84.414062 72 C 84.414062 78.855469 78.855469 84.414062 72 84.414062 C 65.144531 84.414062 59.585938 78.855469 59.585938 72 C 59.585938 65.144531 65.144531 59.585938 72 59.585938 C 78.855469 59.585938 84.414062 65.144531 84.414062 72 " fill-opacity="1" fill-rule="nonzero"/><path fill="rgb(50.19989%, 50.19989%, 50.19989%)" d="M 84.414062 32.277344 C 84.414062 39.132812 78.855469 44.691406 72 44.691406 C 65.144531 44.691406 59.585938 39.132812 59.585938 32.277344 C 59.585938 25.417969 65.144531 19.863281 72 19.863281 C 78.855469 19.863281 84.414062 25.417969 84.414062 32.277344 " fill-opacity="1" fill-rule="nonzero"/><path fill="rgb(50.19989%, 50.19989%, 50.19989%)" d="M 84.414062 111.722656 C 84.414062 118.582031 78.855469 124.136719 72 124.136719 C 65.144531 124.136719 59.585938 118.582031 59.585938 111.722656 C 59.585938 104.867188 65.144531 99.308594 72 99.308594 C 78.855469 99.308594 84.414062 104.867188 84.414062 111.722656 " fill-opacity="1" fill-rule="nonzero"/><path fill="rgb(50.19989%, 50.19989%, 50.19989%)" d="M 144 52.136719 C 144 58.996094 138.441406 64.550781 131.585938 64.550781 C 124.730469 64.550781 119.171875 58.996094 119.171875 52.136719 C 119.171875 45.28125 124.730469 39.722656 131.585938 39.722656 C 138.441406 39.722656 144 45.28125 144 52.136719 " fill-opacity="1" fill-rule="nonzero"/><path fill="rgb(50.19989%, 50.19989%, 50.19989%)" d="M 144 91.863281 C 144 98.71875 138.441406 104.277344 131.585938 104.277344 C 124.730469 104.277344 119.171875 98.71875 119.171875 91.863281 C 119.171875 85.003906 124.730469 79.449219 131.585938 79.449219 C 138.441406 79.449219 144 85.003906 144 91.863281 " fill-opacity="1" fill-rule="nonzero"/><path fill="rgb(50.19989%, 50.19989%, 50.19989%)" d="M 9.929688 14.898438 C 8.5625 14.898438 7.449219 13.78125 7.449219 12.414062 C 7.449219 9.679688 9.679688 7.449219 12.414062 7.449219 C 13.78125 7.449219 14.898438 8.5625 14.898438 9.929688 C 14.898438 11.296875 13.78125 12.414062 12.414062 12.414062 C 12.414062 13.78125 11.296875 14.898438 9.929688 14.898438 " fill-opacity="1" fill-rule="nonzero"/><path fill="rgb(50.19989%, 50.19989%, 50.19989%)" d="M 9.929688 94.34375 C 8.5625 94.34375 7.449219 93.230469 7.449219 91.863281 C 7.449219 89.128906 9.679688 86.898438 12.414062 86.898438 C 13.78125 86.898438 14.898438 88.011719 14.898438 89.378906 C 14.898438 90.746094 13.78125 91.863281 12.414062 91.863281 C 12.414062 93.230469 11.296875 94.34375 9.929688 94.34375 " fill-opacity="1" fill-rule="nonzero"/><path fill="rgb(50.19989%, 50.19989%, 50.19989%)" d="M 9.929688 54.621094 C 8.5625 54.621094 7.449219 53.503906 7.449219 52.136719 C 7.449219 49.402344 9.679688 47.171875 12.414062 47.171875 C 13.78125 47.171875 14.898438 48.289062 14.898438 49.65625 C 14.898438 51.023438 13.78125 52.136719 12.414062 52.136719 C 12.414062 53.503906 11.296875 54.621094 9.929688 54.621094 " fill-opacity="1" fill-rule="nonzero"/><path fill="rgb(50.19989%, 50.19989%, 50.19989%)" d="M 9.929688 134.070312 C 8.5625 134.070312 7.449219 132.953125 7.449219 131.585938 C 7.449219 128.851562 9.679688 126.621094 12.414062 126.621094 C 13.78125 126.621094 14.898438 127.734375 14.898438 129.101562 C 14.898438 130.472656 13.78125 131.585938 12.414062 131.585938 C 12.414062 132.953125 11.296875 134.070312 9.929688 134.070312 " fill-opacity="1" fill-rule="nonzero"/><path fill="rgb(50.19989%, 50.19989%, 50.19989%)" d="M 69.515625 74.484375 C 68.148438 74.484375 67.035156 73.367188 67.035156 72 C 67.035156 69.265625 69.265625 67.035156 72 67.035156 C 73.367188 67.035156 74.484375 68.148438 74.484375 69.515625 C 74.484375 70.882812 73.367188 72 72 72 C 72 73.367188 70.882812 74.484375 69.515625 74.484375 " fill-opacity="1" fill-rule="nonzero"/><path fill="rgb(50.19989%, 50.19989%, 50.19989%)" d="M 69.515625 34.757812 C 68.148438 34.757812 67.035156 33.644531 67.035156 32.277344 C 67.035156 29.539062 69.265625 27.308594 72 27.308594 C 73.367188 27.308594 74.484375 28.425781 74.484375 29.792969 C 74.484375 31.160156 73.367188 32.277344 72 32.277344 C 72 33.644531 70.882812 34.757812 69.515625 34.757812 " fill-opacity="1" fill-rule="nonzero"/><path fill="rgb(50.19989%, 50.19989%, 50.19989%)" d="M 69.515625 114.207031 C 68.148438 114.207031 67.035156 113.089844 67.035156 111.722656 C 67.035156 108.988281 69.265625 106.757812 72 106.757812 C 73.367188 106.757812 74.484375 107.875 74.484375 109.242188 C 74.484375 110.609375 73.367188 111.722656 72 111.722656 C 72 113.089844 70.882812 114.207031 69.515625 114.207031 " fill-opacity="1" fill-rule="nonzero"/><path fill="rgb(50.19989%, 50.19989%, 50.19989%)" d="M 129.101562 54.621094 C 127.734375 54.621094 126.621094 53.503906 126.621094 52.136719 C 126.621094 49.402344 128.851562 47.171875 131.585938 47.171875 C 132.953125 47.171875 134.070312 48.289062 134.070312 49.65625 C 134.070312 51.023438 132.953125 52.136719 131.585938 52.136719 C 131.585938 53.503906 130.472656 54.621094 129.101562 54.621094 " fill-opacity="1" fill-rule="nonzero"/><path fill="rgb(50.19989%, 50.19989%, 50.19989%)" d="M 129.101562 94.34375 C 127.734375 94.34375 126.621094 93.230469 126.621094 91.863281 C 126.621094 89.128906 128.851562 86.898438 131.585938 86.898438 C 132.953125 86.898438 134.070312 88.011719 134.070312 89.378906 C 134.070312 90.746094 132.953125 91.863281 131.585938 91.863281 C 131.585938 93.230469 130.472656 94.34375 129.101562 94.34375 " fill-opacity="1" fill-rule="nonzero"/></svg>